<svg width="276" height="169" viewBox="0 0 276 169" fill="none" xmlns="http://www.w3.org/2000/svg">
<ellipse cx="82.3056" cy="113.251" rx="73.9042" ry="55.086" fill="white"/>
<ellipse cx="77.2636" cy="72.8843" rx="67.6576" ry="55.086" transform="rotate(11.4742 77.2636 72.8843)" fill="white"/>
<ellipse cx="156.21" cy="55.086" rx="73.9042" ry="55.086" fill="white"/>
<ellipse cx="228.403" cy="72.5356" rx="46.8744" ry="37.6364" fill="white"/>
<ellipse cx="191.109" cy="113.251" rx="73.9042" ry="55.086" fill="white"/>
<circle cx="102.589" cy="75.7116" r="25.0735" fill="black"/>
<ellipse cx="110.864" cy="65.1807" rx="6.26838" ry="6.01765" fill="white"/>
<circle cx="183.828" cy="75.7116" r="25.0735" fill="black"/>
<ellipse cx="192.102" cy="65.1807" rx="6.26838" ry="6.01765" fill="white"/>
<path d="M117.889 110.172H173.483C185.045 164.782 109.279 166.258 117.889 110.172Z" fill="black"/>
<rect x="141.804" y="110.172" width="7.37973" height="11.8076" fill="white"/>
<path d="M163.348 135.391C159.702 130.991 126.823 134.78 124.908 139.319C122.992 143.858 137.19 153.721 149.08 151.626C160.97 149.531 163.373 146.101 165.798 141.65C168.224 137.198 163.348 135.391 163.348 135.391Z" fill="#FF0606"/>
</svg>
